#!OML:ASF I:\salsa\salsa 7_09\Patient 1\Session 1\dancerfemale.ASF
:FULLY-SPECIFIED
:DEGREES
2007
root 11.582 16.1445 6.26857 -338.65 616.567 351.356
lowerback -2.27842 4.56023 5.12135
upperback -19.6468 5.20675 2.56031
thorax -21.5349 1.08036 -0.224106
lowerneck 2.40033 3.58369 -1.0833
upperneck 19.1686 5.3767 -7.13023
head 5.55189 1.78134 -1.87566
rclavicle -2.46493e-014 -5.40694e-014
rhumerus -50.6969 -1.18937 -92.3228
rradius 79.9261
rwrist -30.8864
rhand 5.24397 -306.094
rfingers 7.12502
rthumb 30.6026 26.4294
lclavicle -2.46493e-014 -5.40694e-014
lhumerus 42.0321 29.2957 27.8153
lradius 108.327
lwrist -13.2783
lhand -50.5373 -330.833
lfingers 7.12502
lthumb -23.1047 417.801
rfemur -24.7137 -3.00168 18.7315
rtibia 29.8543
rfoot -23.4023 2.50757
rtoes 5.66237
lfemur -21.3674 -3.25901 -25.377
ltibia 33.1194
lfoot -26.1552 10.69
ltoes -18.8797
2008
root 11.5691 16.1362 6.25351 -338.893 616.89 351.463
lowerback -2.16941 4.27574 4.67863
upperback -20.2747 4.79487 2.52451
thorax -21.5841 0.887154 -0.158071
lowerneck 2.4434 3.45956 -1.21369
upperneck 19.6583 5.07966 -6.22771
head 5.66402 1.66287 -1.58399
rclavicle -1.27222e-014 5.40694e-014
rhumerus -51.146 -1.20045 -92.3485
rradius 80.4231
rwrist -31.5028
rhand 5.59981 -305.518
rfingers 7.12502
rthumb 30.9419 27.0694
lclavicle -1.27222e-014 5.40694e-014
lhumerus 43.488 28.614 29.2015
lradius 108.461
lwrist -13.2537
lhand -50.5467 -330.632
lfingers 7.12502
lthumb -23.1137 418.001
rfemur -24.5137 -3.66468 18.9559
rtibia 29.94
rfoot -23.4074 3.03948
rtoes 5.97292
lfemur -21.3187 -3.42842 -25.2311
ltibia 33.36
lfoot -26.2042 10.6763
ltoes -19.0667
2009
root 11.5565 16.1277 6.23622 -339.343 617.129 351.717
lowerback -2.36993 4.04628 4.41971
upperback -20.4801 4.36992 2.28428
thorax -21.7388 0.689841 -0.211575
lowerneck 2.66848 3.32303 -1.43472
upperneck 20.1972 4.70684 -5.09259
head 5.75531 1.5155 -1.20966
rclavicle 8.74653e-015 7.95139e-015
rhumerus -51.6298 -0.939276 -92.7059
rradius 80.8238
rwrist -32.6391
rhand 5.42822 -305.584
rfingers 7.12502
rthumb 30.7783 26.9727
lclavicle 8.74653e-015 7.95139e-015
lhumerus 45.0225 27.7464 30.6619
lradius 108.602
lwrist -12.9898
lhand -50.5024 -329.855
lfingers 7.12502
lthumb -23.0712 418.784
rfemur -24.2643 -4.14934 19.1829
rtibia 30.0475
rfoot -23.483 3.38927
rtoes 5.97885
lfemur -21.1867 -3.46633 -25.0709
ltibia 33.6071
lfoot -26.3481 10.5625
ltoes -19.4024
2010
root 11.5401 16.1188 6.2185 -339.829 617.277 352.006
lowerback -2.69276 3.84603 4.1097
upperback -20.6626 3.96453 2.02107
thorax -21.7759 0.511144 -0.26154
lowerneck 2.76126 3.14988 -1.72882
upperneck 20.9721 4.26084 -3.85559
head 5.94422 1.32102 -0.790951
rclavicle -2.06736e-014 7.95139e-015
rhumerus -52.0765 -0.657009 -93.107
rradius 80.9188
rwrist -33.6595
rhand 5.26426 -305.953
rfingers 7.12502
rthumb 30.622 26.574
lclavicle -2.06736e-014 7.95139e-015
lhumerus 46.5112 26.7557 32.295
lradius 108.671
lwrist -12.8722
lhand -50.4809 -329.221
lfingers 7.12502
lthumb -23.0506 419.421
rfemur -24.0286 -4.65974 19.3969
rtibia 30.1425
rfoot -23.5515 3.80643
rtoes 5.87993
lfemur -21.0522 -3.43879 -24.925
ltibia 33.8822
lfoot -26.512 10.4754
ltoes -19.8475
2011
root 11.5164 16.1091 6.19547 -340.971 617.257 352.674
lowerback -2.9958 3.68957 3.74162
upperback -20.6833 3.64465 1.79805
thorax -21.6051 0.404999 -0.253186
lowerneck 2.78938 2.9593 -2.01017
upperneck 21.7548 3.7813 -2.66126
head 6.15441 1.10984 -0.38633
rclavicle -5.56597e-015 -3.02153e-014
rhumerus -52.3126 -0.339006 -93.3964
rradius 80.7234
rwrist -34.4756
rhand 5.225 -305.861
rfingers 7.12502
rthumb 30.5846 26.6592
lclavicle -5.56597e-015 -3.02153e-014
lhumerus 48.0793 25.6848 34.1991
lradius 108.626
lwrist -12.9809
lhand -50.4756 -328.893
lfingers 7.12502
lthumb -23.0455 419.75
rfemur -23.4436 -5.16531 19.6402
rtibia 30.1761
rfoot -23.5454 4.44938
rtoes 6.10689
lfemur -20.5752 -3.26335 -24.7555
ltibia 34.1927
lfoot -26.7374 10.4338
ltoes -20.221
2012
root 11.4892 16.0967 6.16863 -342.446 617.228 353.784
lowerback -3.95665 3.54351 3.50273
upperback -20.2247 3.27181 1.56801
thorax -21.2771 0.293707 -0.16828
lowerneck 2.76395 2.83268 -2.241
upperneck 22.4745 3.40006 -1.60946
head 6.3642 0.945486 -0.0284919
rclavicle -1.11319e-014 -4.69132e-014
rhumerus -52.4727 0.211685 -93.7443
rradius 80.6461
rwrist -35.4007
rhand 5.19625 -305.804
rfingers 7.12502
rthumb 30.5571 26.7109
lclavicle -1.11319e-014 -4.69132e-014
lhumerus 49.4754 24.6617 36.0299
lradius 108.505
lwrist -13.021
lhand -50.6383 -328.415
lfingers 7.12502
lthumb -23.2016 420.208
rfemur -22.901 -5.65686 19.9939
rtibia 30.1749
rfoot -23.5151 5.14421
rtoes 6.36583
lfemur -20.205 -3.08084 -24.4734
ltibia 34.5609
lfoot -27.0449 10.3806
ltoes -20.3539
2013
root 11.4627 16.0811 6.14328 -344.38 617.134 355.476
lowerback -4.6676 3.43641 3.26692
upperback -20.2554 3.01173 1.41916
thorax -20.8266 0.192774 -0.162056
lowerneck 2.81382 2.65421 -2.45793
upperneck 23.1218 2.92667 -0.566075
head 6.54426 0.740912 0.320999
rclavicle -6.36111e-015 -1.19271e-014
rhumerus -52.6087 0.695181 -94.0784
rradius 80.5953
rwrist -36.1793
rhand 5.42041 -305.916
rfingers 7.12502
rthumb 30.7709 26.6393
lclavicle -6.36111e-015 -1.19271e-014
lhumerus 50.722 23.5278 37.8128
lradius 108.405
lwrist -13.061
lhand -50.7253 -328.04
lfingers 7.12502
lthumb -23.2851 420.572
rfemur -22.479 -6.04948 20.4805
rtibia 30.1735
rfoot -23.5082 5.77772
rtoes 6.12723
lfemur -19.9804 -2.87895 -24.0562
ltibia 34.9678
lfoot -27.3655 10.3908
ltoes -20.7196
2014
root 11.4319 16.0662 6.11793 -346.267 616.984 357.189
lowerback -5.47589 3.37871 3.05507
upperback -20.313 2.80531 1.20382
thorax -20.3469 0.0991278 -0.252924
lowerneck 2.80508 2.40406 -2.54125
upperneck 23.7429 2.3342 0.496551
head 6.73513 0.495353 0.651346
rclavicle -2.8625e-014 -3.02153e-014
rhumerus -52.7187 1.0476 -94.4716
rradius 80.3349
rwrist -36.4846
rhand 5.44123 -305.654
rfingers 7.12502
rthumb 30.7907 26.905
lclavicle -2.8625e-014 -3.02153e-014
lhumerus 51.8452 22.2561 39.6272
lradius 108.38
lwrist -13.1363
lhand -50.5536 -328.488
lfingers 7.12502
lthumb -23.1203 420.145
rfemur -22.1492 -6.28152 20.9521
rtibia 30.2286
rfoot -23.6187 6.24037
rtoes 5.6415
lfemur -19.7985 -2.70042 -23.6355
ltibia 35.3604
lfoot -27.6904 10.4793
ltoes -21.2552
2015
root 11.3918 16.0537 6.08769 -347.094 616.932 357.936
lowerback -6.52487 3.20132 2.70221
upperback -20.3886 2.40515 0.956176
thorax -19.7482 -0.0704201 -0.281143
lowerneck 2.68688 2.22032 -2.77
upperneck 24.3333 1.79216 1.75139
head 6.93704 0.281269 1.07423
rclavicle 1.59028e-015 2.3059e-014
rhumerus -52.8214 1.64697 -95.1535
rradius 79.9336
rwrist -36.4886
rhand 4.98076 -305.081
rfingers 7.12502
rthumb 30.3516 27.3961
lclavicle 1.59028e-015 2.3059e-014
lhumerus 52.5394 21.1272 41.0192
lradius 108.463
lwrist -13.0025
lhand -50.1139 -328.659
lfingers 7.12502
lthumb -22.6984 420.026
rfemur -21.9313 -6.36029 21.1945
rtibia 30.4092
rfoot -23.8426 6.44837
rtoes 5.57898
lfemur -19.6558 -2.61577 -23.4051
ltibia 35.6721
lfoot -27.9757 10.4924
ltoes -21.4046
2016
root 11.35 16.0418 6.05565 -347.005 616.837 357.806
lowerback -7.71476 2.98106 2.18202
upperback -20.4421 1.94001 0.667897
thorax -19.0417 -0.251248 -0.266274
lowerneck 2.56859 2.20758 -3.07867
upperneck 24.9986 1.47115 2.99526
head 7.16474 0.165198 1.5218
rclavicle 1.90833e-014 3.61788e-014
rhumerus -52.7604 2.3653 -95.9098
rradius 79.3093
rwrist -36.245
rhand 4.6638 -303.788
rfingers 7.12502
rthumb 30.0492 28.6337
lclavicle 1.90833e-014 3.61788e-014
lhumerus 52.9492 20.1166 42.0468
lradius 108.53
lwrist -12.875
lhand -49.9294 -328.09
lfingers 7.12502
lthumb -22.5214 420.617
rfemur -21.8009 -6.18456 21.1949
rtibia 30.6849
rfoot -24.1403 6.44386
rtoes 5.79515
lfemur -19.4664 -2.59477 -23.378
ltibia 35.8256
lfoot -28.2113 10.4802
ltoes -21.0314
2017
root 11.3128 16.0249 6.02729 -346.687 616.595 357.313
lowerback -8.78875 2.82153 1.44545
upperback -20.4049 1.60208 0.401813
thorax -18.3018 -0.3283 -0.131841
lowerneck 2.51843 2.20152 -3.18141
upperneck 25.5456 1.22733 3.84234
head 7.35105 0.0796241 1.81003
rclavicle 2.78299e-015 -2.70347e-014
rhumerus -52.5938 3.08299 -96.5499
rradius 78.7392
rwrist -36.2393
rhand 4.07968 -302.275
rfingers 7.12502
rthumb 29.4918 30.0472
lclavicle 2.78299e-015 -2.70347e-014
lhumerus 53.2691 19.103 43.2813
lradius 108.601
lwrist -12.881
lhand -50.1719 -327.886
lfingers 7.12502
lthumb -22.754 420.793
rfemur -21.6059 -5.80661 21.0536
rtibia 31.0165
rfoot -24.5722 6.34138
rtoes 5.90081
lfemur -19.066 -2.58353 -23.4728
ltibia 35.8388
lfoot -28.4521 10.5373
ltoes -20.6433
2018
root 11.2804 16.0135 6.00486 -346.216 616.303 356.545
lowerback -9.65028 2.69102 0.563789
upperback -20.3547 1.34306 0.171799
thorax -17.7012 -0.342325 0.110952
lowerneck 2.7649 2.10054 -3.05442
upperneck 25.8046 0.930747 4.25237
head 7.40256 -0.0423429 1.90764
rclavicle 1.76918e-014 -5.56597e-015
rhumerus -52.7085 3.69295 -97.0467
rradius 78.7225
rwrist -36.4992
rhand 3.70226 -302.143
rfingers 7.12502
rthumb 29.1314 30.1154
lclavicle 1.76918e-014 -5.56597e-015
lhumerus 53.3332 18.0699 44.5601
lradius 108.716
lwrist -12.8962
lhand -50.4864 -327.711
lfingers 7.12502
lthumb -23.0559 420.93
rfemur -21.332 -5.38883 20.7953
rtibia 31.3576
rfoot -24.9233 6.2014
rtoes 5.90849
lfemur -18.505 -2.66471 -23.6898
ltibia 35.731
lfoot -28.6064 10.729
ltoes -20.363
2019
root 11.253 15.999 5.98547 -346.116 616.056 355.678
lowerback -9.96382 2.50602 -0.227794
upperback -20.2104 1.07304 -0.0385475
thorax -17.3215 -0.364117 0.31543
lowerneck 3.12329 2.06035 -2.99897
upperneck 26.0445 0.710896 4.6749
head 7.42581 -0.136865 2.02505
rclavicle -2.60408e-014 -7.95139e-015
rhumerus -52.9264 4.05935 -97.4002
rradius 78.8238
rwrist -36.2027
rhand 4.30422 -302.857
rfingers 7.12502
rthumb 29.7061 29.5031
lclavicle -2.60408e-014 -7.95139e-015
lhumerus 53.0753 17.1442 45.5493
lradius 108.846
lwrist -12.88
lhand -50.5108 -326.957
lfingers 7.12502
lthumb -23.0793 421.681
rfemur -20.5232 -5.00741 20.4675
rtibia 31.6759
rfoot -25.2093 6.02353
rtoes 6.29886
lfemur -17.404 -2.60294 -23.9646
ltibia 35.5254
lfoot -28.7691 10.8358
ltoes -20.0861
